<?xml version="1.0" encoding="UTF-8"?>
<svg id="Layer_2" xmlns="http://www.w3.org/2000/svg" viewBox="0 0 947.86 939.42">
  <defs>
    <style>
      .cls-1 {
        fill: var(--svg);
      }

      .cls-2 {
        fill: var(--svg);
      }

      .cls-3 {
        fill: var(--svg);
      }

      .cls-4 {
        fill: var(--svg);
      }

      .cls-5 {
        fill: var(--svg);
      }

      .cls-6 {
        fill: var(--svg);
      }
    </style>
  </defs>
  <g id="Layer_1-2" data-name="Layer_1">
    <g>
      <path class="cls-6" d="M846.88,939.42c-4.19-27.29-1.73-54.95-4.63-82.31-.71-6.74-1.57-13.46-2.01-20.22-.77-11.68-1.2-23.39-1.89-35.08-1.06-17.84-1.83-35.71-3.49-53.5-1.01-10.76-2.98-21.5-5.41-32.04-2.17-9.41-4.84-18.85-8.59-27.72-6.36-15.03-16-27.78-29.56-37.35-4.68-3.3-8.85-7.31-13.3-10.93-6.32-5.15-12.62-10.33-19.06-15.33-5.75-4.46-11.43-9.08-17.57-12.95-9.99-6.31-20.11-12.51-30.59-17.94-10.78-5.59-22.05-10.24-33.13-15.22-1.57-.7-3.33-.97-5.41-.78,2.32,2.01,4.71,3.93,6.93,6.04,6.45,6.13,13.1,12.09,19.15,18.6,5.07,5.46,9.45,11.57,14.02,17.49,1.95,2.52,3.77,5.18,5.33,7.95,2.91,5.19,5.73,10.44,8.33,15.79,4.78,9.83,8.92,19.89,11.61,30.57,4.15,16.5,6.18,33.08,3.24,49.98-1.14,6.57-4.66,12.08-8.76,17.19-3.78,4.72-7.15,9.92-11.61,13.9-5.98,5.34-12.45,10.38-19.4,14.32-13.36,7.57-27.07,14.55-40.88,21.26-15.57,7.56-32.09,12.36-49.34,14.09-10.58,1.07-21.27,2.28-31.84,1.85-22.76-.92-44.83-5.51-65.63-15.32-13.02-6.14-25.86-12.57-37.45-21.16-10.81-8.02-21.61-16.08-31.89-24.75-6.37-5.37-11.75-11.93-17.6-17.93-6.24-6.39-12.53-12.73-18.76-19.13-2.37-2.44-4.77-4.88-6.9-7.53-6.28-7.81-12.61-15.58-18.58-23.62-5.57-7.5-11.04-15.11-15.93-23.06-5.81-9.45-10.98-19.29-16.36-28.99-2.75-4.96-5.34-10.01-8.23-15.44-1.86,1.76-3.21,3.15-4.67,4.41-4.68,4.02-9.21,8.26-14.17,11.91-6.24,4.59-12,9.55-14.63,17.01-2.37,6.74-3.91,13.77-6.15,20.56-4.13,12.55-4.58,25.65-6.16,38.59-1.5,12.31-3.34,24.57-5.07,36.85-1.81,12.82-3.22,25.71-5.6,38.42-3.08,16.44-3.32,32.88-.95,49.29,1.33,9.23,4.29,18.21,6.26,27.36,1.54,7.16,2.63,14.41,4.02,21.6,1.68,8.68,3.12,17.43,5.3,25.99,1.81,7.12,4.76,13.94,6.79,21.01,1.53,5.32,2.4,10.83,3.56,16.26h-16c.07-.32.27-.67.19-.95-1.56-5.72-3.13-11.44-4.72-17.15-1.83-6.59-3.94-13.13-5.46-19.79-2.02-8.82-3.51-17.77-5.37-26.63-1.69-8.1-3.74-16.12-5.32-24.24-1.92-9.87-3.92-19.75-5.17-29.71-1.59-12.67-1.23-25.33,1.04-38.02,2.29-12.84,3.7-25.83,5.46-38.76.88-6.49,1.73-12.99,2.54-19.49.53-4.27.97-8.54,1.45-12.82-35.42,43.34-74.74,81.8-123.02,110.36,3.09,3.47,3.13,3.98,2.49,8.75-.79,5.87-2.5,11.38-1.22,17.76,2.73,13.64,3.82,27.6,5.88,41.38,2.03,13.56,4.4,27.07,6.68,40.59.49,2.93,1.25,5.81,1.89,8.71h-15.33c-1.76-8.64-3.75-17.24-5.21-25.93-2.01-11.99-3.68-24.03-5.35-36.07-1.31-9.45-2.42-18.93-3.55-28.41-.34-2.86.44-6.21-.81-8.51-1.73-3.17-2.24-5.76.13-9.11-8.47,3.86-13.82,12.49-24.65,11.27-.2,17.8-.52,34.98-.55,52.16-.03,11.83,2.61,23.27,5.95,34.54,1.15,3.87,1.02,7.16-1.96,10.07h-8.67c-3.12-2.63-4.42-6.22-5.25-10.04-1.19-5.48-2.84-10.93-3.39-16.48-1.07-10.79-2.13-21.65-2.05-32.47.1-15.41,1.11-30.82,1.99-46.21.22-3.86,1.4-7.67,2.13-11.43-4.51-1.69-5.97-3.2-6.14-6.46-.42-7.81-.81-15.63-1.12-23.45-.19-4.66-.08-9.33-.32-13.99-.29-5.84-.8-11.67-1.21-17.5-1.81,3.17-3.36,6.22-4.34,9.44-3.84,12.54-7.59,25.1-11.19,37.71-1.78,6.24-3.15,12.6-4.77,18.89-1.62,6.3-3.38,12.56-4.95,18.86-2.03,8.14-4.04,16.28-5.86,24.46-1.74,7.86-3.33,15.75-4.79,23.66-2.07,11.18-3.96,22.4-5.95,33.6-.68,3.81-1.4,7.61-2.11,11.41h-13.33c-1.96-4.4-.39-8.78.32-13.08,1.24-7.52,2.85-14.98,4.28-22.46,1.2-6.28,2.36-12.58,3.59-18.85.41-2.09.25-3.38-2.27-4.2-2.98-.96-3.73-3.72-3.73-6.76.02-9.32.62-18.71-.34-27.94-1.21-11.64-3.53-23.18-5.8-34.69-1.15-5.83-3.14-11.5-4.91-17.19-.91-2.92-2.18-5.72-3.44-8.97-1.67,1.8-3.36,3.42-4.81,5.23-2.48,3.1-4.8,6.32-7.2,9.48-2.91,3.84-7.17,4.45-11.49,2.36-3.05-1.47-4.12-6.27-1.86-9.2,2.47-3.21,4.98-6.4,7.58-9.49,7.02-8.34,14.61-16.25,21.02-25.02,8.11-11.1,18.38-19.64,29.35-27.48,5.47-3.9,11.56-6.92,17.14-10.68,4.16-2.8,8.05-6.04,11.79-9.38.68-.6.47-2.84-.04-4.02-3.33-7.76-3.19-16.02-3.56-24.17-.18-3.96,3.71-6.56,8.12-6.63,2.1-.03,4.45-.24,6.23-1.21,9.99-5.41,20.61-9.11,31.41-12.5,4.7-1.48,9.11-3.99,13.49-6.32,3.66-1.95,7.08-2.27,10.62.1.69.47,1.55.89,2.37.95,6.97.51,8.6,2.26,8.44,9.85,5.22-1.52,10.33-2.84,15.32-4.49,14.3-4.74,28.52-9.73,42.84-14.41,6.1-1.99,12.59-2.93,18.48-5.37,5.01-2.07,9.7-5.25,14.03-8.58,8.12-6.23,15.95-12.87,23.79-19.46,6.41-5.38,12.83-10.77,18.93-16.49,7.14-6.7,14.87-12.52,23.48-17.1,7.13-3.79,14.21-7.73,22.32-9.27.78-.15,1.76-2.17,1.72-3.29-.35-10.31-.66-20.63-1.49-30.91-.51-6.36-2.38-12.63-2.71-18.99-.24-4.56-1.67-7.42-5.31-10.27-5.57-4.36-9.32-10.4-12.79-16.64-5.82-10.43-12.19-20.56-18.27-30.84-2.3-3.88-4.45-7.85-6.69-11.76-2.78-4.86-5.59-9.71-8.47-14.71-2.28,1.22-4.39,2.65-6.71,3.52-7.02,2.64-12.18-.38-13.17-7.82-1.09-8.2-2.16-16.42-2.72-24.67-.88-13.1-6.71-23.7-15.34-33.17-2.28-2.5-4.27-5.39-5.81-8.4-4.79-9.35-7.7-19.29-4.9-29.74,1.41-5.27,2.41-10.85,6.25-15.44,1.28-1.53,1-5.27.14-7.52-1.82-4.78-4.6-9.18-6.75-13.84-2.95-6.4-5.51-12.99-8.55-19.35-3.6-7.53-6.94-15.28-11.48-22.23-5.45-8.35-10.21-16.92-13.18-26.38-6.32-20.12-6.74-40.82-4.71-61.54,1.12-11.4,3.02-22.81,5.78-33.92,2.72-10.96,6.3-21.83,10.79-32.19,2.82-6.5,7.85-12.08,12.19-17.85,4.23-5.63,8.44-11.37,13.39-16.35,7.58-7.62,15.72-14.68,23.72-21.86,13.22-11.87,29.97-16.41,46.3-21.47,17.24-5.34,34.66-10.19,52.21-14.37,22.38-5.32,45.19-8.01,68.17-9.28,18.33-1.01,36.63-1.1,54.92.73,20.26,2.03,40.07,6.12,59.37,12.69,15.67,5.33,30.58,12.26,44.84,20.6,7.72,4.51,15.21,9.41,22.77,14.18,6.52,4.12,13.21,8.01,19.43,12.56,4.68,3.43,9.14,7.36,12.95,11.72,6.71,7.67,12.93,15.79,19.21,23.83,2.16,2.77,4.12,5.74,5.78,8.83,4.73,8.82,9.31,17.72,13.84,26.65,4.75,9.35,8.29,19.17,10.89,29.32,1.94,7.57,3.49,15.24,5.55,22.78,4.17,15.3,4.02,30.79,1.15,46.1-1.81,9.65-5.26,19.05-8.58,28.35-3.74,10.46-7.92,20.78-12.39,30.94-1.63,3.71-4.62,6.84-7.09,10.15-.49.66-1.49.95-2.18,1.36,2.25,25.83-.75,51.63-1.47,77.46-.07,2.67.02,5.35-.27,7.99-.35,3.25-.89,6.49-1.57,9.69-1.5,7.1-8.32,9.7-15.31,9.1-2.85-.24-5.66-1.03-8.67-1.61-2.98,5.55-4.43,11.67-4.84,17.91-.64,9.72-3.15,19.05-6.6,27.94-3.22,8.3-8.02,16.03-12.46,23.81-2.29,4-.89,7.48.33,11.15.76,2.28,1.76,4.51,2.28,6.84,2.21,9.93,4.48,19.85,6.32,29.85,1.72,9.34,2.98,18.77,4.29,28.18.24,1.77.7,2.72,2.47,3.36,1.47.52,2.7,1.74,4,2.7.52.39.89,1.28,1.41,1.35,6.16.89,9.08,6.38,13.66,9.49,6.99-5.21,14.56-2.99,21.56-.77,8.94,2.85,17.47,6.98,26.2,10.49,1.17.47,2.52.54,3.8.72,1.31.19,2.67.12,3.93.45,14.55,3.89,29.06,7.93,43.63,11.75,10.71,2.8,20.65,7.25,30.13,12.92,19.66,11.78,39.68,22.8,61.67,29.84,18.36,5.88,36.6,12.16,54.87,18.33,8.07,2.72,16.25,5.23,24.07,8.56,4.49,1.91,8.47,5.14,12.48,8.06,2.77,2.02,3.08,6.29,1.08,9.04-1.94,2.68-7.19,3.53-10.33,1.54-2.8-1.77-5.45-3.77-8.23-5.58-7.56-4.95-16.34-6.64-24.79-9.27-10.48-3.26-20.91-6.66-31.3-10.18-11.12-3.77-22.17-7.76-33.26-11.63-.69-.24-1.46-.25-2.79-.46,2.26,3.43,4.13,6.45,6.18,9.34,2.35,3.31,5.18,6.31,7.22,9.79,4.75,8.08,9.06,16.41,13.71,24.54,5.08,8.88,9.89,17.96,15.65,26.38,5.45,7.96,12.01,15.16,18.02,22.75,1.98,2.5,3.86,5.1,5.61,7.77,6.49,9.95,14.38,18.97,19.39,29.92,1.62,3.53,4.41,6.52,6.67,9.76,3.75,5.36,9.76,7.49,15.2,10.34,2.9,1.52,4.14,3.62,3.92,6.63-.22,2.97-1.95,5.11-4.94,5.44-2.33.26-5.22.56-7.05-.53-6.51-3.89-12.88-8.1-18.87-12.75-2.5-1.94-4.09-5.17-5.77-8.01-2.59-4.36-4.6-9.08-7.39-13.31-4.17-6.33-8.79-12.35-13.21-18.51-1.99-2.77-3.89-5.61-5.96-8.32-6.94-9.1-14.01-18.09-20.86-27.25-2.3-3.08-4.23-6.46-6.08-9.84-2.7-4.94-4.93-10.14-7.8-14.97-6-10.11-12.14-20.13-18.49-30.02-4.64-7.23-9.72-14.17-14.52-21.3-.69-1.02-1.24-2.41-1.19-3.61.12-3.49-1.92-4.8-4.69-6.28-8.1-4.31-16.03-8.94-23.95-13.58-9-5.27-18.16-10.17-28.38-12.69-.67-.17-1.42-.02-2.67-.02,4.33,3.3,8.27,6.23,12.14,9.26,4.34,3.39,8.63,6.84,12.9,10.32,8.13,6.61,16.29,13.19,24.31,19.92,4.89,4.1,9.59,8.43,14.29,12.75,7.7,7.1,12.17,16.38,17.01,25.42,5.71,10.64,8.75,22.09,10.88,33.88,1.53,8.47,3.33,16.9,5.02,25.38,1.83.34,3.84.47,5.67,1.12,1.27.45,2.56,1.38,3.38,2.45,6.53,8.55,12.99,17.15,19.37,25.8,2.09,2.84,3.94,5.86,5.81,8.85,4.62,7.38,9.13,14.84,13.79,22.19,3.99,6.3,8.34,12.39,12.16,18.79,4.59,7.69,12.33,10.05,20.03,12.39,3.79,1.15,7.83,1.53,11.77,2.13,3.94.6,6.94,3.57,6.78,6.91-.17,3.58-3.43,6.54-7.63,6.25-9.68-.67-19.1-2.55-27.83-7.12-5.11-2.67-10.31-5.14-13.67-10.17-2.25-3.37-4.76-6.56-6.93-9.98-4.67-7.35-9.14-14.83-13.81-22.18-4.42-6.94-8.85-13.88-13.54-20.64-3.62-5.22-7.65-10.15-11.5-15.22-.28.08-.55.16-.83.24-.04.88-.15,1.76-.12,2.63.74,21.42,1.34,42.85,2.33,64.27.34,7.25,2.02,14.44,2.47,21.69,1.12,18.06,1.94,36.15,2.78,54.23.28,6.1-.02,12.23.42,18.32.42,5.81,1.47,11.57,2.24,17.35h-15.33ZM275.53,636.06c.22-.22.45-.44.67-.66l.2-.16s-.17.19-.17.19c-.22.22-.44.45-.66.67-.23.22-.45.44-.68.66-3.46,1.87-6.11,4.54-8,7.95,4.01-1.34,6.12-4.53,7.98-7.97.22-.23.44-.45.66-.68ZM299.07,627.45c-2.04,3.34-4.09,6.67-6.13,10.01-2.39,3.15-4.57,6.5-7.22,9.41-5.92,6.5-12.01,12.84-18.14,19.14-6.38,6.55-12.97,12.9-19.31,19.49-8,8.32-16.16,16.52-23.64,25.3-6.63,7.78-12.42,16.28-18.58,24.46-1.92,2.55-3.67,5.27-5.82,7.61-7.65,8.36-15.07,16.96-23.27,24.75-7.72,7.33-16.1,14.02-24.57,20.5-9.89,7.56-20.22,14.54-30.29,21.86-2.85,2.08-3.05,4.53-1.67,7.61.63,1.41.68,3.24.48,4.82-.24,1.85-1.04,3.63-1.92,6.45,5.21-3.23,9.69-5.98,14.14-8.76,6.17-3.86,12.38-7.66,18.47-11.64,8.41-5.48,16.9-10.87,25.04-16.72,5.8-4.17,11.15-9,16.61-13.63,9.57-8.11,19.59-15.78,28.49-24.59,10.32-10.21,19.67-21.4,29.36-32.23,4.03-4.51,8.1-9.03,11.73-13.86,6.05-8.08,12.49-16.01,17.37-24.78,3.44-6.2,4.61-13.67,6.71-20.59,2.48-8.18,4.87-16.39,7.29-24.58,2.03-3.33,4.06-6.66,6.08-9.99.55-.35,1.15-.63,1.63-1.06,3.6-3.22,7.13-6.53,10.77-9.71,4.96-4.34,10.43-8.19,14.82-13.03,2.83-3.12,4.95-6.44,9.55-5.97.57-3.82,2.39-6.31,5.49-7.37,2.44-.83,2.29-2.21,1.8-4.29-19.43,6.14-33.35,19.81-46.67,32.54.55,3.45.97,6.14,1.4,8.84ZM515.96,272.48c-4.06.57-8.18.85-12.16,1.77-6.98,1.61-13.91,3.5-20.8,5.51-3.13.91-4.09,3.62-2.87,6.39,1.99,4.51,4.35,8.87,6.81,13.14,4.53,7.89,9.61,15.48,13.78,23.54,4.19,8.09,10.25,12.38,19.37,12.52,17.88.28,35.77.54,53.65,1.01,9.4.25,17.93-1.53,25.39-7.78,7.12-5.96,11.27-13.39,12.43-22.44,1.19-9.24,1.75-18.56,3.02-27.78,1.04-7.57.63-8.49-6.87-9.53-.22-.03-.44-.06-.66-.06-20.87-.44-41.75-.93-62.62-1.27-3.16-.05-6.34.6-9.51.93,0,.3,0,.6,0,.9,7.47,1.99,14.93,4,22.4,5.98,9.31,2.46,18.62,4.91,27.94,7.32,1.89.49,3.11,1.16,1.76,3.51-1.87-.15-3.74-.31-5.61-.45-6.09-.47-12.08-.83-18.14,1.02-5.91,1.81-12.04,3.63-18.15,3.92-14.63.71-29.3.54-43.95.7-.28,0-.55-.23-1.7-.75,1.65-2.81,2.75-5.94,4.88-8.02,3.66-3.57,7.95-6.48,11.98-9.67.25-.2.49-.4.74-.59-.37.06-.74.12-1.11.18ZM671.46,290.01c1.32-2.59,2.61-4.75,3.56-7.06,4.59-11.2,9.09-22.44,13.59-33.68.45-1.13.78-2.31,1.08-3.49,2.19-8.7,5-17.32,6.31-26.16.83-5.62-.21-11.62-1.06-17.35-1.54-10.35-3.31-20.68-5.48-30.91-1.34-6.32-3.23-12.59-5.54-18.63-3.25-8.49-6.82-16.89-10.81-25.07-3.07-6.29-6.89-12.22-10.53-18.21-6.64-10.93-14.21-21.22-23.18-30.34-4.22-4.3-8.83-8.34-13.78-11.76-6.41-4.44-13.28-8.25-20.05-12.16-11.84-6.86-23.45-14.2-35.71-20.19-10.89-5.33-22.35-9.67-33.89-13.44-20.39-6.67-41.61-8.65-62.96-9.66-20.02-.95-40-.64-59.84,2.12-17.01,2.37-33.93,5.38-50.84,8.44-15.6,2.82-30.9,6.88-45.66,12.77-5.34,2.13-10.46,5.1-15.98,6.43-9.15,2.2-16.68,7.03-23.67,12.82-6.18,5.11-12.37,10.37-17.72,16.31-8.35,9.28-16.11,19.1-23.92,28.86-5.56,6.95-7.27,15.71-10.33,23.79-2.13,5.64-3.87,11.55-4.77,17.5-2.13,14.09-4,28.23-5.24,42.42-.55,6.28.79,12.71,1.08,19.08.57,12.76,3.67,24.88,8.88,36.5.18.41.35.82.58,1.2,4.05,6.63,8.58,13.03,12.05,19.95,4.77,9.53,8.74,19.45,13.04,29.21,1.99,4.52,3.57,9.28,6.03,13.53,2.82,4.89,6.82,8.92,12.03,11.45,3.15,1.53,4.16,3.37,3.53,6.92-.52,2.95-3.05,2.89-5.15,3.24-1.51.25-3.1-.01-4.65.04-3.49.13-5.77,1.8-6.75,5.26-2.23,7.86-2.59,15.69-.26,23.62,2.32,7.9,7.89,13.7,12.77,19.85,6.8,8.56,10.13,18.41,11.98,28.85,1.08,6.1,1.2,12.36,1.88,18.54.1.93.79,2.41,1.45,2.56,3.29.74,6.68,1.6,10.01,1.51,3.73-.1,6.9.46,8.89,3.75,1.99,3.28,3.71,6.73,5.44,10.16,2.73,5.41,5.33,10.89,8.07,16.29,1.78,3.53,3.53,7.09,5.6,10.45,6.04,9.78,12.29,19.44,18.35,29.21,3.52,5.66,8.48,9.73,14.46,12.2,12.77,5.28,25.71,10.17,38.64,15.07,21.57,8.18,43.52,15.12,66.27,19.19,4.69.84,9.86,1.37,14.37.27,11.93-2.92,23.71-6.53,35.38-10.39,13.22-4.38,26.55-8.66,39.28-14.24,13.93-6.11,27.35-13.43,40.76-20.65,7.03-3.79,13.48-9.07,17.45-15.85,2.38-4.07,5.09-7.4,8.02-10.95,6.73-8.12,10.34-18.06,13.42-28.02,2.01-6.5,3.2-13.28,4.31-20.01,1.57-9.56,4.7-18.61,8.35-27.51,1.79-4.38,5.21-5.46,9.44-3.22,1.95,1.03,3.87,2.13,5.78,3.24,3.59,2.08,5.14,1.46,5.55-2.62,1.05-10.33,2.44-20.66,2.75-31.02.47-15.53.03-31.08.23-46.62.07-5.77-1.87-10.78-4.41-15.96-1.24,1.87-2.41,3.57-3.52,5.31-1.7,2.67-3.92,3.39-6.84,2.07-5.04-2.27-5.91-7.26-2.15-11.69,2.17-2.56,4.08-5.34,6.08-7.98-3.69-2.29-8.52-5.32-13.42-8.27-.57-.34-1.5-.39-2.17-.22-3.11.77-6.22,1.59-9.27,2.56-.68.22-1.56,1.05-1.66,1.7-1,6.74-2.57,13.49-2.59,20.25-.03,12.84-5.29,23.24-13.27,32.65-1.76,2.08-3.9,3.92-6.1,5.54-8.19,6.01-17.57,8.28-27.56,7.99-21.2-.6-42.4-1.26-63.59-2.07-6.92-.27-13.5-2.87-17.47-8.36-7.63-10.58-14.34-21.82-21.3-32.87-2.82-4.47-5.27-9.17-7.93-13.74-1.45-2.49-3.22-4.03-6.56-3.64-4.73.55-9.54.41-14.3.76-.96.07-2.39.82-2.7,1.62-2.39,6.03-4.54,12.16-6.8,18.25-1.06,2.86-2.3,5.66-3.32,8.54-3.72,10.51-10.68,18.69-18.85,25.9-5.42,4.79-11.5,8.65-18.88,9.77-10.85,1.65-21.73,3.08-32.56,4.83-15.67,2.54-31.16,2.78-46.28-2.87-5.85-2.18-12.24-3.57-16.13-9.12-1.83-2.62-3.12-5.61-4.97-8.22-5.23-7.41-9.74-15.28-11.97-24.01-1.39-5.46-1.02-11.42-1.09-17.17-.05-3.87.65-7.75.75-11.63.04-1.4-.7-2.81-1.08-4.22l-1.07.02c-1.7,4.39-3.39,8.78-5.12,13.16-1.33,3.36-2.63,6.73-4.13,10.01-1.24,2.69-5.01,4.19-7.6,3.25-2.6-.94-4.05-4-3.08-7.12,1.11-3.55,2.36-7.07,3.79-10.5,2.37-5.68,4.58-11.48,7.51-16.87,2.43-4.47,6.39-7.42,12.01-6.28,2.69.55,5.32,1.46,7.94,2.3,2.4.77,4.37.62,5.57-1.95,1.82-3.88,3.59-7.78,5.52-11.6,1.88-3.73,3.8-7.46,5.96-11.02,2.2-3.61,5.8-4.19,9.02-1.43,1.98,1.7,3.86,3.67,5.28,5.85,3.67,5.63,5.64,6.4,12.14,4.12,6.06-2.12,12.18-4.07,18.19-6.34,10.43-3.94,21.16-7.03,30.91-12.77,12.19-7.17,21.75-16.94,28.76-28.94,4.57-7.83,7.61-16.55,11.43-24.82,1.7-3.67,3.37-7.4,5.53-10.8,3.09-4.86,8.84-4.88,12.07-.11,2.88,4.25,6,8.5,7.94,13.2,3.97,9.63,7.45,19.49,10.65,29.41,1.45,4.5,1.71,9.37,2.59,14.05.63,3.35,1.39,6.67,2.1,10,.35-.05.69-.09,1.04-.14.55-.95.98-2.01,1.67-2.84,3.26-3.97,6.49-7.96,9.92-11.77,1.9-2.12,4.14-1.98,6.59-.42,3.06,1.95,4.97,4.59,6.13,7.95,1.38,4,2.87,7.95,4.63,12.8.26-1.97.57-3.12.55-4.27-.15-9.08.26-18.05,2.4-26.98,2.72-11.36,4.96-22.84,7.2-34.3.76-3.88,4-5.35,6.41-7.66.32-.31,1.55-.26,1.8.05,1.93,2.48,4.75,4.85,5.34,7.66,1.34,6.37,1.56,12.98,2.22,19.5.97,9.51,1.94,19.02,2.95,28.85,1.43-.47,2.04-.7,2.67-.87,3.31-.89,6.6-1.88,9.94-2.63,7.7-1.72,14.2.61,19.54,6.26,2.1,2.22,3.09,1.28,3.35-1.09.83-7.65,1.64-15.31,2.18-22.99.3-4.2-.33-8.48.17-12.64.29-2.45,1.61-5.01,3.12-7.02,1.56-2.06,4.36-2.75,6.58-1.23,1.51,1.03,2.49,3.09,3.25,4.88.43,1,0,2.4-.16,3.6-1.88,14.01,2.84,25.28,13.88,34.06,3.1,2.46,6.02,5.18,8.84,7.96,3.1,3.06,5.99,6.32,8.93,9.46,5.56-3.3,8.16-3.45,11.34-.48,7.07,6.61,14.03,13.34,21.11,19.92,4.43,4.12,9.17,7.91,13.47,12.15,2.22,2.19,4.11,4.87,5.56,7.64,1.42,2.71-1.59,4.23-2.64,6.28-.08.16-.01.41-.01.88,4.96,1.16,9.98,2.33,15.18,3.55ZM612.57,493.18c-2.81,2.23-4.97,4.36-7.49,5.87-7.66,4.6-15.31,9.26-23.24,13.35-11.58,5.98-23.12,12.22-35.21,17.01-16.84,6.67-34.13,12.27-51.32,18.02-9.92,3.31-20.14,5.93-30.7,4.5-10.97-1.48-21.97-3.1-32.73-5.64-20.64-4.88-40.18-13.16-59.93-20.72-4.61-1.76-9.3-3.32-14.79-5.27,1,5.85,1.97,10.9,2.7,15.98,2.49,17.26,2.36,34.54-.26,51.76-.48,3.17-1.63,6.52-5.59,7.55-.41.11-.82,1.77-.59,2.49.94,2.89,1.94,5.8,3.29,8.53,3.01,6.11,6.15,12.15,9.4,18.13,4.46,8.24,9.01,16.43,13.65,24.58,1.68,2.96,3.58,5.81,5.62,8.54,6.32,8.45,12.66,16.88,19.16,25.19,4.14,5.3,8.28,10.63,12.91,15.49,9.26,9.72,19.23,18.78,28.19,28.75,10.53,11.71,23.4,20.44,35.76,29.84,11.02,8.37,22.69,15.81,35.6,21,9.85,3.96,19.59,8.7,29.84,11.08,16.74,3.88,33.86,6.32,51.21,4.3,12.57-1.46,25.07-3.2,37.2-7.12,16.65-5.38,31.92-13.76,47.31-21.8,7.99-4.17,15.35-9.59,22.8-14.72,8.57-5.9,14.57-14.22,18.74-23.47,2.23-4.95,2.93-11.03,2.78-16.55-.38-13.48-1.08-27.02-6.33-39.8-2.81-6.84-5.23-13.84-8.11-20.64-1.58-3.74-3.47-7.42-5.69-10.81-4.46-6.79-9.06-13.51-13.94-20-3.84-5.11-7.79-10.24-12.39-14.63-6.52-6.24-13.64-11.86-20.57-17.67-4.67-3.91-9.45-7.69-14.19-11.53-.4.32-.8.65-1.21.97,1.04,2.21,1.86,4.56,3.16,6.6,2.15,3.39,2.62,7.51.72,9.62-3.88,4.31-11.18,3.31-13.66-1.92-.95-2-1.58-4.16-2.58-6.14-4.51-8.93-7.82-18.19-8.55-28.28-.55-7.64-.81-15.37-2.21-22.86-2.04-10.93-5.02-21.69-7.54-32.53-.5-2.14-.75-4.33-1.2-7.04ZM375.5,272.66c-9.45.64-17.08.5-24.46,1.79-15.24,2.66-30.34,6.13-45.52,9.16-5.25,1.05-8.64,3.65-9.24,9.25-.1.93-.86,1.78-1,2.71-.68,4.33-1.5,8.63.59,12.9,3.23,6.62,6.27,13.34,9.39,20.02,2.51,5.39,5.68,10.3,11.38,12.71,11.57,4.89,23.73,6.5,36.14,5.1,11.66-1.31,23.27-3.14,34.84-5.13,5.11-.88,10.72-.58,14.97-4.5,1.55-1.43,3.05-2.9,4.64-4.29,6.19-5.41,11.43-11.54,14.38-19.34,2.07-5.45,3.99-10.95,6-16.42.3-.82.8-1.58,1.06-2.42,1-3.1,2.41-6.17,2.71-9.34.15-1.6-1.36-4.12-2.83-4.94-3.13-1.73-6.66-3.38-10.16-3.73-14.88-1.49-29.81-2.5-42.87-3.53ZM126.09,788c.31.23.62.47.92.7,9.51-6.78,19.25-13.26,28.44-20.45,5.86-4.58,10.87-10.24,16.3-15.37,9.98-9.42,18.21-20.28,26.12-31.42,3.76-5.29,7.63-10.54,11.84-15.47,5.78-6.77,11.83-13.31,17.93-19.78,6.27-6.66,12.72-13.16,19.15-19.66,5.95-6.01,12.01-11.91,17.98-17.91.69-.69,1.05-1.7,1.57-2.56-.21-.22-.42-.44-.63-.65-1.2.65-2.53,1.13-3.59,1.96-7.2,5.65-15.49,9.25-24.24,11.12-17.76,3.79-34.45,10.72-51.61,16.28-10.72,3.47-21.8,5.84-32.79,8.38-2.02.47-2.81,1.15-3.22,2.93-1.93,8.48-3.6,17.04-5.94,25.41-2.84,10.17-6.92,20.03-9.29,30.29-3.53,15.28-6.02,30.79-8.96,46.2ZM480.62,235.97c-2.98,5.46-7.18,8.88-12.4,11.15-3.09,1.34-6.4,1.73-8.62-.88-2.28-2.68-4.34-5.95-5.27-9.3-2.2-7.93-3.43-16.13-5.49-24.11-1.84-7.13-4.28-14.11-6.42-21.17-.8-2.65-1.38-5.38-2.32-7.98-.32-.89-1.4-1.5-2.14-2.24-.59.8-1.33,1.54-1.73,2.43-.98,2.18-1.92,4.39-2.67,6.66-3.81,11.49-10.36,21.37-18.2,30.38-4.17,4.78-8.98,9.02-13.63,13.37-3,2.8-6.24,5.34-9.76,8.33,4.61.8,8.57,1.34,12.46,2.19,4.41.96,8.84,1.98,13.1,3.44,1.08.37,2.17,2.49,2.18,3.82.04,4.12-3.41,5.99-8.85,5.18-9.31-1.38-18.58-3.12-27.94-4.04-13.01-1.29-25.59.68-37.59,6.25-7.33,3.4-15.02,5.7-23.12,2.53-2.2-.86-4.18-2.27-6.37-3.49-2.29,4.11-4.42,7.96-6.97,12.53,2.52-.53,4.13-.8,5.71-1.22,17.21-4.61,34.73-7.42,52.53-7.53,13.98-.09,28,.31,41.92,1.43,7.28.58,15,1.96,21.46,5.13,12.88,6.32,25.71,6.94,39.1,3.22,15.47-4.3,30.77-9.18,46.82-11.07,12.66-1.49,25.28-4.43,37.94-4.57,19.83-.21,39.68,1.39,59.52,2.23,2.49.11,4.97.27,7.45.41-4.61-3.9-4.61-3.88-9.58-3.82-6.04.07-9.93-3.84-13.74-7.7-7.8-7.9-15.48-15.92-23.57-24.26-2.93,5.3-5.65,10.21-8.09,14.63,4.08,1.25,8.01,2.18,11.72,3.67,2.56,1.03,2.95,3.61.8,5.3-1.9,1.49-4.31,2.88-6.63,3.17-5.38.67-10.85.71-16.28.9-16.73.59-33.47,1.09-50.2,1.72-1.68.06-3.47.5-4.97,1.24-3.91,1.93-7.77,1.75-10.29-1.36-2.33-2.87-4.26-6.09-6.18-9.27-1.33-2.21-2.35-4.62-3.7-7.33ZM91.02,727.98c-1.36.8-2.51,1.44-3.62,2.15-8.53,5.5-17.38,10.57-25.46,16.67-6.45,4.87-12.39,10.61-17.67,16.74-2.68,3.11-8.67,6.45-3.66,12.34.12.15.08.43.12.65.55,2.6.95,5.25,1.68,7.79,2.75,9.52,6.09,18.89,8.29,28.52,2.02,8.84,2.85,17.95,4.24,26.94.18,1.15.56,2.27.85,3.4,2.64-7.39,5.07-14.51,6.52-21.82,2.64-13.35,6.92-26.2,10.87-39.17,2.54-8.34,5.1-16.68,7.67-25.01.23-.74.53-1.46.9-2.14,3.56-6.63,6.04-13.91,11.47-19.44.23-.24.24-.88.11-1.25-.7-2.05-1.48-4.07-2.33-6.37ZM112.64,776.24c.79-2.95,1.7-5.61,2.2-8.35,1.46-8.07,2.32-16.28,4.25-24.23,1.88-7.76,4.82-15.27,7.24-22.91,1.53-4.83,3.35-9.6,4.35-14.54,2.1-10.33,3.74-20.74,5.58-31.23-12.19,3.2-23.77,7.74-34.44,14.38-.96.6-1.55,2.84-1.31,4.14,1.19,6.49,2.81,12.9,4.09,19.38.69,3.47.84,7.05,1.51,10.53,1.06,5.5,2.83,10.91,3.44,16.45,1.31,11.98,2.07,24.03,3.09,36.39ZM546.5,279.49c-6.04-5.56-13.25-3.55-20.53-3.78.99,5.05,1.78,9.53,6.76,11.17,6.9,2.27,10.02-3.2,13.77-7.38ZM509.03,243.86c2.75-.69,4.52-1.14,6.66-1.68-1.27-9.22-2.52-18.24-3.76-27.25l-.78-.07c-.69,9.41-1.38,18.82-2.12,29ZM524.41,287.39c-1.45-2.97-2.56-5.61-4.02-8.03-.38-.63-2.14-1.13-2.77-.79-2.8,1.51-5.43,3.32-8.08,5.09-.53.36-.85,1.04-1.27,1.57.62.36,1.22.98,1.88,1.04,4.58.42,9.18.73,14.26,1.11ZM553.67,238.72c-1.24-3.58-9.68-6.1-13.23-5.16-2.85.75-5.92,1.46-7.17,5.16h20.4ZM548.32,287.05c6.02-1.51,11.07-2.78,16.12-4.04,0-.44,0-.88,0-1.31-3.51-.99-7.02-2.01-10.55-2.94-.28-.07-.85.29-1.03.59-1.38,2.27-2.71,4.59-4.53,7.71Z"/>
      <path class="cls-5" d="M274.87,636.74c-1.85,3.44-3.96,6.64-7.98,7.97,1.89-3.41,4.54-6.08,8-7.95,0,0-.02-.02-.02-.02Z"/>
      <path class="cls-3" d="M299.07,627.45c.41.01.82.02,1.23.04-2.03,3.33-4.06,6.66-6.08,9.99-.42,0-.85-.02-1.27-.02,2.04-3.34,4.09-6.67,6.13-10.01Z"/>
      <polygon class="cls-5" points="276.23 635.43 276.4 635.24 276.2 635.4 276.23 635.43"/>
      <path class="cls-5" d="M275.57,636.1c.22-.22.44-.45.66-.67,0,0-.03-.03-.03-.03-.22.22-.45.44-.67.66l.04.04Z"/>
      <path class="cls-5" d="M275.53,636.06c-.22.23-.44.45-.66.68,0,0,.02.02.02.02.23-.22.45-.44.68-.66,0,0-.04-.04-.04-.04Z"/>
      <path class="cls-2" d="M513.65,437.14c-1.53,9.05-8.77,11.09-15.52,13.54-5.3,1.92-10.81,3.25-16.09,5.21-3.48,1.29-6.57,3.9-10.11,4.74-7.06,1.68-14.03,1.61-21.04-1.69-4.88-2.3-10.51-3.13-15.89-4.21-7.5-1.5-14.99-2.72-21.83-6.57-1.89-1.07-4.65-1.24-6.89-.93-7.34,1.03-8.25.91-13.77-4.29,1.58-3.48,3.88-5.72,8.03-6.34,9.67-1.44,17.54-6.47,23.97-13.62,4.55-5.06,10.14-6.33,16.49-5.74,7.93.73,15.84,1.93,23.78,2.12,4.31.1,8.9-.85,12.95-2.41,6.4-2.46,12.11-1.3,17.95,1.38,8.15,3.73,16.35,7.4,25.32,8.69,3.61.52,7.27.76,10.91.95,3.61.19,6.66,1.91,6.82,4.12.2,2.7-2.29,5.88-5.87,6.09-5.26.31-10.58-.16-15.87-.37-.97-.04-1.93-.38-3.36-.67ZM493.79,428.31c-4.19-.24-8.82-1.7-12.59-.49-13.41,4.28-26.53,4.08-39.83,0-1.41-.43-3.57-.82-4.47-.1-3.55,2.86-6.73,6.18-10.04,9.32.19.38.39.76.58,1.14,12.39-.36,24.81-.22,37.14-1.25,9.2-.77,18.27-3.1,27.42-4.62,2.05-.34,2.64-1.23,1.79-3.99ZM437.67,443.12c23.13,6.9,45.16,5.07,65.7-8.34-21.67,4.74-43.55,7.69-65.7,8.34Z"/>
      <path class="cls-4" d="M415.54,354.25c1.71,3.88,2.58,7.02,1.09,10.54-.71,1.69-.98,3.65-1.04,5.51-.1,2.85.59,5.47,3.31,7.13.74.45,1.63,1.12,1.85,1.86.56,1.95,1.44,4.2.9,5.92-.36,1.15-2.9,2.15-4.54,2.27-5.15.38-8.88-2.74-11.53-6.53-1.94-2.77-3.87-6.59-3.52-9.68.53-4.65,2.39-9.51,4.99-13.4,1.42-2.12,5.53-2.45,8.49-3.61Z"/>
      <path class="cls-6" d="M497.1,380.58c-.07-3.48.06-6.19,2.57-8.33,2.58-2.19,3.31-5.16,2.71-8.46-.28-1.53-.67-3.04-.8-4.58-.31-3.71.73-5.01,4.61-6.05,3.24-.86,5.49.03,6.69,3.19,1.16,3.04,2.29,6.19,2.72,9.38.86,6.37-3.55,13.49-9.7,15.17-2.68.73-5.81-.17-8.8-.34Z"/>
      <path class="cls-1" d="M413.24,290.91c-6.16,6.87-14.12,9.16-22.78,8.97-11.31-.25-22.62-.8-33.9-1.67-9.01-.7-17.66.74-26.28,2.98-1.18.31-2.36.7-3.56.78-.74.05-1.51-.4-2.26-.62.38-.69.59-1.71,1.18-2.02,12.02-6.49,22.95-15.04,36.25-19.09,11.05-3.36,21.92-2.83,32.48,1.7,6.39,2.74,12.58,5.96,18.87,8.97ZM385.6,283.44c-5.13-.3-9.22-.73-13.3-.67-1.53.02-4,.88-4.34,1.91-.47,1.45.21,3.72,1.17,5.11,1.41,2.04,3.43,3.71,5.36,5.33.49.41,2.08.4,2.4,0,2.83-3.59,5.49-7.31,8.7-11.67ZM382.28,296.75c7.11-1.22,13.21-2.24,19.3-3.35.63-.11,1.22-.69,1.69-1.19.08-.09-.4-.98-.79-1.22-3.3-2-6.61-4.01-10.01-5.83-.65-.35-2.19-.24-2.53.23-2.5,3.45-4.8,7.05-7.66,11.35ZM346.74,292.08c.09.41.19.83.28,1.24,6.05.72,12.1,1.44,18.12,2.15-1.43-3.64-2.69-6.84-4.09-10.41-4.97,2.44-9.64,4.72-14.32,7.01Z"/>
    </g>
  </g>
</svg>